<svg xmlns="http://www.w3.org/2000/svg" xmlns:xlink="http://www.w3.org/1999/xlink" xmlns:svgjs="http://svgjs.com/svgjs" version="1.1" width="512" height="512" x="0" y="0" viewBox="0 0 511.923 511.923" style="enable-background:new 0 0 512 512" xml:space="preserve"><g><g><g><path d="m508.956 246.922-43.501-59.036.5-73.339c.049-6.679-4.266-12.609-10.635-14.626l-69.915-22.141-42.642-59.676c-3.894-5.454-10.885-7.703-17.223-5.595l-69.579 23.226-69.579-23.232c-6.344-2.109-13.334.14-17.223 5.595l-42.636 59.67-69.92 22.153c-6.369 2.011-10.683 7.947-10.635 14.62l.5 73.339-43.502 59.036c-3.955 5.375-3.955 12.707 0 18.082l43.501 59.036-.5 73.339c-.049 6.679 4.266 12.609 10.635 14.626l69.914 22.141 42.642 59.676c2.919 4.083 7.575 6.381 12.396 6.381 1.615 0 3.236-.256 4.827-.786l69.579-23.226 69.579 23.232c6.338 2.115 13.334-.146 17.223-5.595l42.636-59.67 69.922-22.152c6.369-2.011 10.683-7.947 10.635-14.62l-.5-73.345 43.501-59.036c3.955-5.37 3.955-12.707 0-18.077zm-71.042 63.114c-1.95 2.651-2.992 5.857-2.968 9.142l.457 67.166-64.052 20.288c-3.145.993-5.881 2.98-7.795 5.668l-39.04 54.648-63.729-21.275c-3.132-1.048-6.521-1.048-9.653 0l-63.729 21.275-39.047-54.654c-1.914-2.682-4.656-4.674-7.795-5.674l-64.046-20.282.457-67.166c.024-3.285-1.018-6.49-2.968-9.142l-39.849-54.07 39.845-54.075c1.95-2.651 2.992-5.857 2.968-9.142l-.457-67.166 64.052-20.288c3.145-.993 5.881-2.98 7.795-5.668l39.04-54.648 63.729 21.275c3.132 1.048 6.521 1.048 9.653 0l63.729-21.275 39.047 54.654c1.914 2.682 4.656 4.674 7.795 5.674l64.046 20.282-.457 67.166c-.024 3.285 1.018 6.49 2.968 9.142l39.857 54.069z" fill="#000000" data-original="#000000"/><path d="m330.891 188.051-103.494 103.5-46.36-46.36c-5.954-5.954-15.595-5.954-21.544 0-5.948 5.954-5.954 15.595 0 21.544l57.135 57.135c2.974 2.974 6.874 4.461 10.775 4.461s7.795-1.487 10.775-4.461l114.269-114.269c5.954-5.954 5.954-15.595 0-21.544s-15.608-5.954-21.556-.006z" fill="#000000" data-original="#000000"/></g></g></g></svg>