<svg xmlns="http://www.w3.org/2000/svg" xmlns:xlink="http://www.w3.org/1999/xlink" xmlns:svgjs="http://svgjs.com/svgjs" version="1.1" width="512" height="512" x="0" y="0" viewBox="0 0 60 60" style="enable-background:new 0 0 512 512" xml:space="preserve"><g><path d="M8.353,28.628a.306.306,0,0,0,0,.032,6.042,6.042,0,0,0,2.341,5.649,4.055,4.055,0,0,1,1.475,2.21,6.036,6.036,0,0,0,3.243,3.908l-5.162,11.84a3.085,3.085,0,0,0,2.847,4.281h4.292a.412.412,0,0,1,.289.119L20.11,59.1a3.092,3.092,0,0,0,5.008-.934L30,47.418l4.876,10.734a3.093,3.093,0,0,0,5.014.946l2.438-2.432a.411.411,0,0,1,.288-.118h4.292a3.085,3.085,0,0,0,2.843-4.292L44.593,40.428a6.047,6.047,0,0,0,3.244-3.916,4.044,4.044,0,0,1,1.474-2.2,6.044,6.044,0,0,0,2.341-5.649l0-.028a4.1,4.1,0,0,1,.524-2.583h0a6.049,6.049,0,0,0-.007-6.111,4.064,4.064,0,0,1-.519-2.567.306.306,0,0,0,.005-.032,6.043,6.043,0,0,0-2.341-5.649,4.056,4.056,0,0,1-1.475-2.209,6.049,6.049,0,0,0-4.324-4.319,4.039,4.039,0,0,1-2.2-1.474,6.028,6.028,0,0,0-5.654-2.34A4.059,4.059,0,0,1,33.05.827a6.054,6.054,0,0,0-6.111.006,4.051,4.051,0,0,1-2.6.514,6.055,6.055,0,0,0-5.65,2.342,4.056,4.056,0,0,1-2.21,1.476,6.049,6.049,0,0,0-4.318,4.323,4.047,4.047,0,0,1-1.474,2.2,6.043,6.043,0,0,0-2.341,5.649l0,.028a4.072,4.072,0,0,1-.525,2.583,6.049,6.049,0,0,0,.007,6.111A4.064,4.064,0,0,1,8.353,28.628ZM23.292,57.35a1.094,1.094,0,0,1-1.77.332l-2.436-2.43a2.423,2.423,0,0,0-1.7-.7H13.092a1.074,1.074,0,0,1-.909-.487,1.056,1.056,0,0,1-.1-1.006l5.193-11.909a4.026,4.026,0,0,1,1.414,1.165,6.029,6.029,0,0,0,5.65,2.341l.025,0a4.069,4.069,0,0,1,2.584.525,6.037,6.037,0,0,0,1.584.639Zm24.621-4.306a1.086,1.086,0,0,1-1,1.5H42.616a2.422,2.422,0,0,0-1.7.7l-2.437,2.431a1.095,1.095,0,0,1-1.776-.344L31.466,45.811a6.063,6.063,0,0,0,1.6-.645,4.032,4.032,0,0,1,2.568-.518l.029,0a6.023,6.023,0,0,0,5.65-2.341,4.02,4.02,0,0,1,1.415-1.164ZM9.559,20.949a6.059,6.059,0,0,0,.77-3.881l0-.027A4.042,4.042,0,0,1,11.9,13.286a6.071,6.071,0,0,0,2.205-3.3A4.044,4.044,0,0,1,16.994,7.1a6.06,6.06,0,0,0,3.293-2.2,4.043,4.043,0,0,1,3.781-1.566,6.085,6.085,0,0,0,3.892-.776,4.049,4.049,0,0,1,4.091.006,6.043,6.043,0,0,0,3.885.77,4.038,4.038,0,0,1,3.778,1.566,6.066,6.066,0,0,0,3.3,2.206A4.043,4.043,0,0,1,45.9,9.994a6.064,6.064,0,0,0,2.2,3.293,4.044,4.044,0,0,1,1.571,3.749c0,.011,0,.022-.005.032a6.075,6.075,0,0,0,.775,3.892,4.036,4.036,0,0,1,0,4.08l0,.011a6.059,6.059,0,0,0-.77,3.881l0,.027A4.042,4.042,0,0,1,48.1,32.714a6.063,6.063,0,0,0-2.2,3.3A4.044,4.044,0,0,1,43.006,38.9a6.06,6.06,0,0,0-3.293,2.2,4.048,4.048,0,0,1-3.751,1.57l-.031,0a6.083,6.083,0,0,0-3.892.775,4.043,4.043,0,0,1-4.089,0,6.062,6.062,0,0,0-3.057-.827,6,6,0,0,0-.825.057l-.025,0A4.052,4.052,0,0,1,20.286,41.1a6.063,6.063,0,0,0-3.3-2.2A4.044,4.044,0,0,1,14.1,36.006a6.06,6.06,0,0,0-2.2-3.293,4.043,4.043,0,0,1-1.571-3.749c0-.011,0-.022.005-.032a6.075,6.075,0,0,0-.775-3.892A4.045,4.045,0,0,1,9.559,20.949Z" fill="#000000" data-original="#000000"/><path d="M30,41A18,18,0,1,0,12,23,18.021,18.021,0,0,0,30,41ZM30,7A16,16,0,1,1,18.411,34H19a1.993,1.993,0,0,0,1.722-1H25.05a3.1,3.1,0,0,1,1.349.313l2.318,1.168A5.116,5.116,0,0,0,30.95,35h4.94a3.082,3.082,0,0,0,3.066-2.5,3.019,3.019,0,0,0-.356-2,2.949,2.949,0,0,0,1.356-2,3.011,3.011,0,0,0-.342-1.975,3,3,0,0,0,1.343-3.03,2.955,2.955,0,0,0-1.357-2,3.019,3.019,0,0,0,.357-2A3.083,3.083,0,0,0,36.89,17H32.854l1.516-2.3a2.9,2.9,0,0,0,.63-1.8,2.859,2.859,0,0,0-1.285-2.4,2.9,2.9,0,0,0-3.673.387L22.9,18.682A1.088,1.088,0,0,1,22.13,19H20.722A1.993,1.993,0,0,0,19,18H14.811A16.021,16.021,0,0,1,30,7Zm.119,11.474A1,1,0,0,0,31,19h5.89a1.083,1.083,0,0,1,1.093.825A1,1,0,0,1,37,21a1,1,0,0,0,0,2h.89a1.083,1.083,0,0,1,1.093.825A1,1,0,0,1,38,25H37a1,1,0,0,0,0,2,1,1,0,0,1,.982,1.179A1.082,1.082,0,0,1,36.89,29H36a1,1,0,0,0,0,2,1,1,0,0,1,.982,1.179A1.081,1.081,0,0,1,35.89,33H30.95a3.118,3.118,0,0,1-1.349-.312l-2.318-1.169A5.116,5.116,0,0,0,25.05,31H21V21h1.13a3.1,3.1,0,0,0,2.219-.935l7.138-7.808a.892.892,0,0,1,1.125-.1A.873.873,0,0,1,33,12.89a.989.989,0,0,1-.245.63l-2.59,3.93A1,1,0,0,0,30.119,18.474ZM14,23a15.952,15.952,0,0,1,.292-3H19V32H16.782A15.9,15.9,0,0,1,14,23Z" fill="#000000" data-original="#000000"/></g></svg>