<svg xmlns="http://www.w3.org/2000/svg" xmlns:xlink="http://www.w3.org/1999/xlink" xmlns:svgjs="http://svgjs.com/svgjs" version="1.1" width="512" height="512" x="0" y="0" viewBox="0 0 512 512" style="enable-background:new 0 0 512 512" xml:space="preserve"><g><g fill="currentColor"><path d="m329.513 85.698c-.004 0-.005 0-.009 0-27 0-52.625 8.941-73.502 25.413-20.878-16.474-46.502-25.414-73.504-25.414-.002 0-.007 0-.009 0-31.777.002-61.65 12.381-84.113 34.854-22.469 22.466-34.843 52.336-34.843 84.108 0 31.771 12.374 61.642 34.843 84.109l115.615 115.626c10.139 10.14 24.04 21.793 41.688 21.906.084 0 .166.001.251.001 18.074-.001 32.741-12.568 42.216-22.042l13.952-13.954c5.857-5.858 5.856-15.356-.002-21.213-5.857-5.857-15.355-5.857-21.213.001l-13.951 13.953c-8.796 8.796-15.862 13.255-21.003 13.255-.019 0-.038 0-.057 0-5.113-.033-11.874-4.325-20.668-13.12l-115.615-115.626c-16.802-16.801-26.056-39.138-26.056-62.896s9.253-46.094 26.059-62.897c16.799-16.807 39.137-26.063 62.899-26.065s46.102 9.25 62.904 26.053c2.162 2.162 4.821 3.521 7.609 4.086 4.766.968 9.909-.39 13.604-4.086 16.8-16.8 39.135-26.052 62.896-26.052h.006c23.763.002 46.102 9.258 62.903 26.067 28.079 28.08 34.128 71.837 14.712 106.41-4.057 7.223-1.49 16.367 5.733 20.424 2.322 1.305 4.844 1.924 7.331 1.924 5.246 0 10.34-2.757 13.092-7.657 25.973-46.245 17.891-104.767-19.652-142.312-22.465-22.475-52.339-34.854-84.116-34.856z" fill="#currentColor" data-original="#000000"/><path d="m349.761 359.296c8.284 0 15-6.716 15-15v-21.587h21.587c8.284 0 15-6.716 15-15s-6.716-15-15-15h-21.587v-21.585c0-8.284-6.716-15-15-15s-15 6.716-15 15v21.585h-21.581c-8.284 0-15 6.716-15 15s6.716 15 15 15h21.581v21.587c0 8.285 6.716 15 15 15z" fill="#currentColor" data-original="#000000"/></g></g></svg>