<svg xmlns="http://www.w3.org/2000/svg" xmlns:xlink="http://www.w3.org/1999/xlink" xmlns:svgjs="http://svgjs.com/svgjs" version="1.1" width="512" height="512" x="0" y="0" viewBox="0 0 512 512" style="enable-background:new 0 0 512 512" xml:space="preserve"><g><path d="m511.451 382.243c-2.467-25.485-23.565-35.105-55.5-49.666-18.545-8.456-41.626-18.98-70.969-35.924a16 16 0 0 0 -18.668 1.93c-49.919 44.651-109.043 27.289-145.494-9.725-36.357-36.918-52.736-96.176-7.372-145.34a16 16 0 0 0 2.119-18.809c-13.054-22.755-22.369-43.074-29.853-59.4-14.516-31.665-25-54.544-48.334-62.542-23.437-8.033-53.226.658-118.053 34.441a35.094 35.094 0 0 0 -18.79 35.005c10.355 97.987 64.254 203.287 147.877 288.887 40.574 41.536 87.252 77 134.986 102.544 51.5 27.564 103.544 43.78 154.683 48.2q1.6.138 3.176.138a34.86 34.86 0 0 0 32-20.713l3.236-7.128c25.37-55.851 36.946-81.341 34.956-101.898zm-64.086 88.664-3.24 7.135a3.046 3.046 0 0 1 -3.283 1.921c-189.365-16.358-387.88-216.151-408.483-411.112a3.018 3.018 0 0 1 1.756-3.269c32.409-16.89 67.137-33.531 86.044-33.531a21.206 21.206 0 0 1 6.842.983c10.341 3.545 18.012 20.277 29.623 45.606 6.674 14.56 14.751 32.182 25.659 52.124-21.39 27.071-30.912 58.523-27.606 91.619 3.221 32.234 18.613 63.815 43.342 88.926 24.757 25.139 56.155 41.044 88.408 44.783a128.391 128.391 0 0 0 14.794.862c27.752 0 54.14-9.218 77.461-27.089 26.244 14.614 47.79 24.438 63.992 31.825 26.844 12.24 36.294 17.106 36.926 23.635 1.165 12.039-11.407 39.721-32.235 85.582z" fill="#ffffff" data-original="#000000"/></g></svg>
