<svg xmlns="http://www.w3.org/2000/svg" xmlns:xlink="http://www.w3.org/1999/xlink" xmlns:svgjs="http://svgjs.com/svgjs" version="1.1" width="512" height="512" x="0" y="0" viewBox="0 0 480 480" style="enable-background:new 0 0 512 512" xml:space="preserve"><g>
<g>
	<g>
		<g>
			<path d="M208,0H16C7.168,0,0,7.168,0,16v192c0,8.832,7.168,16,16,16h192c8.832,0,16-7.168,16-16V16C224,7.168,216.832,0,208,0z      M192,192H32V32h160V192z" fill="#000000" data-original="#000000"/>
			<path d="M464,0H272c-8.832,0-16,7.168-16,16v192c0,8.832,7.168,16,16,16h192c8.832,0,16-7.168,16-16V16     C480,7.168,472.832,0,464,0z M448,192H288V32h160V192z" fill="#000000" data-original="#000000"/>
			<path d="M208,256H16c-8.832,0-16,7.168-16,16v192c0,8.832,7.168,16,16,16h192c8.832,0,16-7.168,16-16V272     C224,263.168,216.832,256,208,256z M192,448H32V288h160V448z" fill="#000000" data-original="#000000"/>
			<path d="M464,256H272c-8.832,0-16,7.168-16,16v192c0,8.832,7.168,16,16,16h192c8.832,0,16-7.168,16-16V272     C480,263.168,472.832,256,464,256z M448,448H288V288h160V448z" fill="#000000" data-original="#000000"/>
		</g>
	</g>
</g>
<g>
</g>
<g>
</g>
<g>
</g>
<g>
</g>
<g>
</g>
<g>
</g>
<g>
</g>
<g>
</g>
<g>
</g>
<g>
</g>
<g>
</g>
<g>
</g>
<g>
</g>
<g>
</g>
<g>
</g>
</g></svg>