<svg xmlns="http://www.w3.org/2000/svg" xmlns:xlink="http://www.w3.org/1999/xlink" xmlns:svgjs="http://svgjs.com/svgjs" version="1.1" width="512" height="512" x="0" y="0" viewBox="0 0 64 64" style="enable-background:new 0 0 512 512" xml:space="preserve" class=""><g><g id="Layer_18" data-name="Layer 18"><path d="m21.14 29.44-4.31-.63-1.93-3.91a1 1 0 0 0 -1.8 0l-1.93 3.91-4.31.63a1 1 0 0 0 -.56 1.7l3.13 3-.74 4.3a1 1 0 0 0 1.45 1l3.86-2 3.86 2a1 1 0 0 0 1.45-1l-.74-4.3 3.13-3a1 1 0 0 0 -.56-1.7zm-4.34 3.68a1 1 0 0 0 -.29.89l.49 2.82a19.6 19.6 0 0 0 -3-1.45c-.32-.09-2.68 1.33-3 1.45l.49-2.83a1 1 0 0 0 -.29-.89l-2-2 2.8-.39a1 1 0 0 0 .75-.55l1.25-2.57 1.27 2.57a1 1 0 0 0 .75.55l2.83.41z" fill="#000000" data-original="#000000" class=""/><path d="m57 31h-31a1 1 0 0 0 0 2h31a1 1 0 0 0 0-2z" fill="#000000" data-original="#000000" class=""/><path d="m21.14 12.44-4.31-.63-1.93-3.91a1 1 0 0 0 -1.8 0l-1.93 3.91-4.31.63a1 1 0 0 0 -.56 1.7l3.13 3.05-.74 4.3a1 1 0 0 0 1.45 1.05l3.86-2 3.86 2a1 1 0 0 0 1.45-1.05l-.74-4.3 3.13-3.05a1 1 0 0 0 -.56-1.7zm-4.34 3.68a1 1 0 0 0 -.29.89l.49 2.82a19.6 19.6 0 0 0 -3-1.45c-.32-.09-2.68 1.33-3 1.45l.49-2.83a1 1 0 0 0 -.29-.89l-2-2 2.8-.39a1 1 0 0 0 .75-.55l1.25-2.57 1.27 2.57a1 1 0 0 0 .75.55l2.83.41z" fill="#000000" data-original="#000000" class=""/><path d="m26 16h31a1 1 0 0 0 0-2h-31a1 1 0 0 0 0 2z" fill="#000000" data-original="#000000" class=""/><path d="m21.14 47.44-4.31-.63-1.93-3.91a1 1 0 0 0 -1.8 0l-1.93 3.91-4.31.63a1 1 0 0 0 -.56 1.7l3.13 3-.74 4.3a1 1 0 0 0 1.45 1l3.86-2 3.86 2a1 1 0 0 0 1.45-1l-.74-4.3 3.13-3a1 1 0 0 0 -.56-1.7zm-4.34 3.68a1 1 0 0 0 -.29.89l.49 2.82a19.6 19.6 0 0 0 -3-1.45c-.32-.09-2.68 1.33-3 1.45l.49-2.83a1 1 0 0 0 -.29-.89l-2-2 2.8-.39a1 1 0 0 0 .75-.55l1.25-2.57 1.27 2.57a1 1 0 0 0 .75.55l2.83.41z" fill="#000000" data-original="#000000" class=""/><path d="m57 49h-31a1 1 0 0 0 0 2h31a1 1 0 0 0 0-2z" fill="#000000" data-original="#000000" class=""/></g></g></svg>